%TF.GenerationSoftware,KiCad,Pcbnew,8.0.6*%
%TF.CreationDate,2024-11-07T13:50:09-03:00*%
%TF.ProjectId,fritzen-pro-micro,66726974-7a65-46e2-9d70-726f2d6d6963,rev?*%
%TF.SameCoordinates,Original*%
%TF.FileFunction,Legend,Bot*%
%TF.FilePolarity,Positive*%
%FSLAX46Y46*%
G04 Gerber Fmt 4.6, Leading zero omitted, Abs format (unit mm)*
G04 Created by KiCad (PCBNEW 8.0.6) date 2024-11-07 13:50:09*
%MOMM*%
%LPD*%
G01*
G04 APERTURE LIST*
%ADD10C,0.150000*%
%ADD11C,0.120000*%
G04 APERTURE END LIST*
D10*
X50233333Y-31384819D02*
X50233333Y-32099104D01*
X50233333Y-32099104D02*
X50280952Y-32241961D01*
X50280952Y-32241961D02*
X50376190Y-32337200D01*
X50376190Y-32337200D02*
X50519047Y-32384819D01*
X50519047Y-32384819D02*
X50614285Y-32384819D01*
X49852380Y-31384819D02*
X49233333Y-31384819D01*
X49233333Y-31384819D02*
X49566666Y-31765771D01*
X49566666Y-31765771D02*
X49423809Y-31765771D01*
X49423809Y-31765771D02*
X49328571Y-31813390D01*
X49328571Y-31813390D02*
X49280952Y-31861009D01*
X49280952Y-31861009D02*
X49233333Y-31956247D01*
X49233333Y-31956247D02*
X49233333Y-32194342D01*
X49233333Y-32194342D02*
X49280952Y-32289580D01*
X49280952Y-32289580D02*
X49328571Y-32337200D01*
X49328571Y-32337200D02*
X49423809Y-32384819D01*
X49423809Y-32384819D02*
X49709523Y-32384819D01*
X49709523Y-32384819D02*
X49804761Y-32337200D01*
X49804761Y-32337200D02*
X49852380Y-32289580D01*
D11*
%TO.C,J3*%
X48570000Y-35530000D02*
X51230000Y-35530000D01*
X48570000Y-88930000D02*
X48570000Y-35530000D01*
X48570000Y-88930000D02*
X51230000Y-88930000D01*
X49900000Y-32930000D02*
X51230000Y-32930000D01*
X51230000Y-32930000D02*
X51230000Y-34260000D01*
X51230000Y-88930000D02*
X51230000Y-35530000D01*
%TD*%
M02*
