%TF.GenerationSoftware,KiCad,Pcbnew,8.0.6*%
%TF.CreationDate,2024-11-07T13:50:09-03:00*%
%TF.ProjectId,fritzen-pro-micro,66726974-7a65-46e2-9d70-726f2d6d6963,rev?*%
%TF.SameCoordinates,Original*%
%TF.FileFunction,Copper,L1,Top*%
%TF.FilePolarity,Positive*%
%FSLAX46Y46*%
G04 Gerber Fmt 4.6, Leading zero omitted, Abs format (unit mm)*
G04 Created by KiCad (PCBNEW 8.0.6) date 2024-11-07 13:50:09*
%MOMM*%
%LPD*%
G01*
G04 APERTURE LIST*
%TA.AperFunction,ComponentPad*%
%ADD10R,1.700000X1.700000*%
%TD*%
%TA.AperFunction,ComponentPad*%
%ADD11O,1.700000X1.700000*%
%TD*%
%TA.AperFunction,Conductor*%
%ADD12C,0.500000*%
%TD*%
G04 APERTURE END LIST*
D10*
%TO.P,J1,1,Pin_1*%
%TO.N,D9-A8*%
X55800000Y-62160000D03*
D11*
%TO.P,J1,2,Pin_2*%
%TO.N,D8*%
X55800000Y-59620000D03*
%TO.P,J1,3,Pin_3*%
%TO.N,D7*%
X55800000Y-57080000D03*
%TO.P,J1,4,Pin_4*%
%TO.N,D6-A7*%
X55800000Y-54540000D03*
%TO.P,J1,5,Pin_5*%
%TO.N,D5*%
X55800000Y-52000000D03*
%TO.P,J1,6,Pin_6*%
%TO.N,D4-A6*%
X55800000Y-49460000D03*
%TO.P,J1,7,Pin_7*%
%TO.N,D3*%
X55800000Y-46920000D03*
%TO.P,J1,8,Pin_8*%
%TO.N,D2*%
X55800000Y-44380000D03*
%TO.P,J1,9,Pin_9*%
%TO.N,GND*%
X55800000Y-41840000D03*
%TO.P,J1,10,Pin_10*%
X55800000Y-39300000D03*
%TO.P,J1,11,Pin_11*%
%TO.N,D0-RXI*%
X55800000Y-36760000D03*
%TO.P,J1,12,Pin_12*%
%TO.N,D1-TXO*%
X55800000Y-34220000D03*
%TD*%
D10*
%TO.P,J2,1,Pin_1*%
%TO.N,D10*%
X71000000Y-62200000D03*
D11*
%TO.P,J2,2,Pin_2*%
%TO.N,D16-MOSI*%
X71000000Y-59660000D03*
%TO.P,J2,3,Pin_3*%
%TO.N,D14-MISO*%
X71000000Y-57120000D03*
%TO.P,J2,4,Pin_4*%
%TO.N,D15-SCK*%
X71000000Y-54580000D03*
%TO.P,J2,5,Pin_5*%
%TO.N,A0*%
X71000000Y-52040000D03*
%TO.P,J2,6,Pin_6*%
%TO.N,A1*%
X71000000Y-49500000D03*
%TO.P,J2,7,Pin_7*%
%TO.N,A2*%
X71000000Y-46960000D03*
%TO.P,J2,8,Pin_8*%
%TO.N,A3*%
X71000000Y-44420000D03*
%TO.P,J2,9,Pin_9*%
%TO.N,5V*%
X71000000Y-41880000D03*
%TO.P,J2,10,Pin_10*%
%TO.N,RESET*%
X71000000Y-39340000D03*
%TO.P,J2,11,Pin_11*%
%TO.N,GND*%
X71000000Y-36800000D03*
%TO.P,J2,12,Pin_12*%
%TO.N,VIN*%
X71000000Y-34260000D03*
%TD*%
D10*
%TO.P,J3,1,Pin_1*%
%TO.N,D1-TXO*%
X49900000Y-34260000D03*
D11*
%TO.P,J3,2,Pin_2*%
%TO.N,D0-RXI*%
X49900000Y-36800000D03*
%TO.P,J3,3,Pin_3*%
%TO.N,D2*%
X49900000Y-39340000D03*
%TO.P,J3,4,Pin_4*%
%TO.N,D3*%
X49900000Y-41880000D03*
%TO.P,J3,5,Pin_5*%
%TO.N,D4-A6*%
X49900000Y-44420000D03*
%TO.P,J3,6,Pin_6*%
%TO.N,D5*%
X49900000Y-46960000D03*
%TO.P,J3,7,Pin_7*%
%TO.N,D6-A7*%
X49900000Y-49500000D03*
%TO.P,J3,8,Pin_8*%
%TO.N,D7*%
X49900000Y-52040000D03*
%TO.P,J3,9,Pin_9*%
%TO.N,D8*%
X49900000Y-54580000D03*
%TO.P,J3,10,Pin_10*%
%TO.N,D9-A8*%
X49900000Y-57120000D03*
%TO.P,J3,11,Pin_11*%
%TO.N,VIN*%
X49900000Y-59660000D03*
%TO.P,J3,12,Pin_12*%
%TO.N,GND*%
X49900000Y-62200000D03*
%TO.P,J3,13,Pin_13*%
%TO.N,RESET*%
X49900000Y-64740000D03*
%TO.P,J3,14,Pin_14*%
%TO.N,5V*%
X49900000Y-67280000D03*
%TO.P,J3,15,Pin_15*%
%TO.N,A3*%
X49900000Y-69820000D03*
%TO.P,J3,16,Pin_16*%
%TO.N,A2*%
X49900000Y-72360000D03*
%TO.P,J3,17,Pin_17*%
%TO.N,A1*%
X49900000Y-74900000D03*
%TO.P,J3,18,Pin_18*%
%TO.N,A0*%
X49900000Y-77440000D03*
%TO.P,J3,19,Pin_19*%
%TO.N,D15-SCK*%
X49900000Y-79980000D03*
%TO.P,J3,20,Pin_20*%
%TO.N,D14-MISO*%
X49900000Y-82520000D03*
%TO.P,J3,21,Pin_21*%
%TO.N,D16-MOSI*%
X49900000Y-85060000D03*
%TO.P,J3,22,Pin_22*%
%TO.N,D10*%
X49900000Y-87600000D03*
%TD*%
D12*
%TO.N,D6-A7*%
X50760000Y-49500000D02*
X49900000Y-49500000D01*
X55800000Y-54540000D02*
X50760000Y-49500000D01*
%TO.N,D9-A8*%
X50760000Y-57120000D02*
X49900000Y-57120000D01*
X55800000Y-62160000D02*
X50760000Y-57120000D01*
%TO.N,D1-TXO*%
X49940000Y-34220000D02*
X49900000Y-34260000D01*
X55800000Y-34220000D02*
X49940000Y-34220000D01*
%TO.N,D4-A6*%
X55800000Y-49460000D02*
X50760000Y-44420000D01*
X50760000Y-44420000D02*
X49900000Y-44420000D01*
%TO.N,D2*%
X55800000Y-44380000D02*
X50760000Y-39340000D01*
X50760000Y-39340000D02*
X49900000Y-39340000D01*
%TO.N,D0-RXI*%
X49940000Y-36760000D02*
X49900000Y-36800000D01*
X55800000Y-36760000D02*
X49940000Y-36760000D01*
%TO.N,D8*%
X55800000Y-59620000D02*
X50760000Y-54580000D01*
X50760000Y-54580000D02*
X49900000Y-54580000D01*
%TO.N,D5*%
X50760000Y-46960000D02*
X49900000Y-46960000D01*
X55800000Y-52000000D02*
X50760000Y-46960000D01*
%TO.N,D3*%
X55800000Y-46920000D02*
X50760000Y-41880000D01*
X50760000Y-41880000D02*
X49900000Y-41880000D01*
%TO.N,D7*%
X55800000Y-57080000D02*
X50760000Y-52040000D01*
X50760000Y-52040000D02*
X49900000Y-52040000D01*
%TO.N,A3*%
X60300000Y-65100000D02*
X55580000Y-69820000D01*
X60300000Y-45300000D02*
X60300000Y-65100000D01*
X55580000Y-69820000D02*
X49900000Y-69820000D01*
X61220000Y-44420000D02*
X61200000Y-44400000D01*
X61200000Y-44400000D02*
X60300000Y-45300000D01*
X71000000Y-44420000D02*
X61220000Y-44420000D01*
%TO.N,D15-SCK*%
X71000000Y-54580000D02*
X65220000Y-54580000D01*
X58920000Y-79980000D02*
X49900000Y-79980000D01*
X65220000Y-54580000D02*
X64000000Y-55800000D01*
X64000000Y-74900000D02*
X58920000Y-79980000D01*
X64000000Y-55800000D02*
X64000000Y-74900000D01*
%TO.N,D16-MOSI*%
X66940000Y-59660000D02*
X65600000Y-61000000D01*
X58940000Y-85060000D02*
X49900000Y-85060000D01*
X65600000Y-61000000D02*
X65600000Y-78400000D01*
X65600000Y-78400000D02*
X58940000Y-85060000D01*
X71000000Y-59660000D02*
X66940000Y-59660000D01*
%TO.N,A0*%
X71000000Y-52040000D02*
X64660000Y-52040000D01*
X63100000Y-71900000D02*
X57560000Y-77440000D01*
X64660000Y-52040000D02*
X63100000Y-53600000D01*
X57560000Y-77440000D02*
X49900000Y-77440000D01*
X63100000Y-53600000D02*
X63100000Y-71900000D01*
%TO.N,A1*%
X54800000Y-74900000D02*
X49900000Y-74900000D01*
X62200000Y-67500000D02*
X54800000Y-74900000D01*
X63100000Y-49500000D02*
X62200000Y-50400000D01*
X62200000Y-50400000D02*
X62200000Y-67500000D01*
X71000000Y-49500000D02*
X63100000Y-49500000D01*
%TO.N,A2*%
X61300000Y-66000000D02*
X54940000Y-72360000D01*
X54940000Y-72360000D02*
X49900000Y-72360000D01*
X62940000Y-46960000D02*
X61300000Y-48600000D01*
X61300000Y-48600000D02*
X61300000Y-66000000D01*
X71000000Y-46960000D02*
X62940000Y-46960000D01*
%TO.N,5V*%
X56820000Y-67280000D02*
X49900000Y-67280000D01*
X60020000Y-41880000D02*
X59400000Y-42500000D01*
X59400000Y-42500000D02*
X59400000Y-64700000D01*
X59400000Y-64700000D02*
X56820000Y-67280000D01*
X71000000Y-41880000D02*
X60020000Y-41880000D01*
%TO.N,RESET*%
X71000000Y-39340000D02*
X59660000Y-39340000D01*
X57360000Y-64740000D02*
X49900000Y-64740000D01*
X58600000Y-63500000D02*
X57360000Y-64740000D01*
X58600000Y-40400000D02*
X58600000Y-63500000D01*
X59660000Y-39340000D02*
X58600000Y-40400000D01*
%TO.N,D14-MISO*%
X64800000Y-58600000D02*
X64800000Y-76600000D01*
X58880000Y-82520000D02*
X49900000Y-82520000D01*
X66280000Y-57120000D02*
X64800000Y-58600000D01*
X64800000Y-76600000D02*
X58880000Y-82520000D01*
X71000000Y-57120000D02*
X66280000Y-57120000D01*
%TO.N,D10*%
X70900000Y-62100000D02*
X68000000Y-62100000D01*
X68000000Y-62100000D02*
X66700000Y-63400000D01*
X66700000Y-63400000D02*
X66700000Y-84400000D01*
X71000000Y-62200000D02*
X70900000Y-62100000D01*
X63500000Y-87600000D02*
X49900000Y-87600000D01*
X66700000Y-84400000D02*
X63500000Y-87600000D01*
%TO.N,VIN*%
X54100000Y-63900000D02*
X53800000Y-63600000D01*
X53800000Y-63600000D02*
X53800000Y-63560000D01*
X53800000Y-63560000D02*
X49900000Y-59660000D01*
X56660000Y-63900000D02*
X54100000Y-63900000D01*
X58400000Y-34200000D02*
X57700000Y-34900000D01*
X58460000Y-34260000D02*
X58400000Y-34200000D01*
X57700000Y-34900000D02*
X57700000Y-62860000D01*
X71000000Y-34260000D02*
X58460000Y-34260000D01*
X57700000Y-62860000D02*
X56660000Y-63900000D01*
%TD*%
M02*
