M48
; DRILL file {KiCad 8.0.6} date 2024-11-07T13:50:12-0300
; FORMAT={-:-/ absolute / inch / decimal}
; #@! TF.CreationDate,2024-11-07T13:50:12-03:00
; #@! TF.GenerationSoftware,Kicad,Pcbnew,8.0.6
; #@! TF.FileFunction,Plated,1,2,PTH
FMAT,2
INCH
; #@! TA.AperFunction,Plated,PTH,ComponentDrill
T1C0.0394
%
G90
G05
T1
X1.9646Y-1.3488
X1.9646Y-1.4488
X1.9646Y-1.5488
X1.9646Y-1.6488
X1.9646Y-1.7488
X1.9646Y-1.8488
X1.9646Y-1.9488
X1.9646Y-2.0488
X1.9646Y-2.1488
X1.9646Y-2.2488
X1.9646Y-2.3488
X1.9646Y-2.4488
X1.9646Y-2.5488
X1.9646Y-2.6488
X1.9646Y-2.7488
X1.9646Y-2.8488
X1.9646Y-2.9488
X1.9646Y-3.0488
X1.9646Y-3.1488
X1.9646Y-3.2488
X1.9646Y-3.3488
X1.9646Y-3.4488
X2.1969Y-1.3472
X2.1969Y-1.4472
X2.1969Y-1.5472
X2.1969Y-1.6472
X2.1969Y-1.7472
X2.1969Y-1.8472
X2.1969Y-1.9472
X2.1969Y-2.0472
X2.1969Y-2.1472
X2.1969Y-2.2472
X2.1969Y-2.3472
X2.1969Y-2.4472
X2.7953Y-1.3488
X2.7953Y-1.4488
X2.7953Y-1.5488
X2.7953Y-1.6488
X2.7953Y-1.7488
X2.7953Y-1.8488
X2.7953Y-1.9488
X2.7953Y-2.0488
X2.7953Y-2.1488
X2.7953Y-2.2488
X2.7953Y-2.3488
X2.7953Y-2.4488
M30
